<svg xmlns="http://www.w3.org/2000/svg" xmlns:xlink="http://www.w3.org/1999/xlink" viewBox="0 0 19 25"><defs><style>.cls-1{fill:#fff;}.cls-2{fill:url(#Soft_Black_Vignette);}.cls-3{fill:url(#Soft_Black_Vignette-2);}.cls-4{font-size:7.63px;font-family:AmericanTypewriter-Bold, American Typewriter;font-weight:700;letter-spacing:0.09em;}</style><radialGradient id="Soft_Black_Vignette" cx="14.94" cy="93.64" r="9.93" gradientTransform="translate(26.64 106.28) rotate(180)" gradientUnits="userSpaceOnUse"><stop offset="0.74" stop-color="#130c0e" stop-opacity="0"/><stop offset="0.83" stop-color="#130c0e" stop-opacity="0.24"/><stop offset="0.89" stop-color="#130c0e" stop-opacity="0.65"/><stop offset="0.9" stop-color="#130c0e" stop-opacity="0.7"/><stop offset="1" stop-color="#130c0e" stop-opacity="0.95"/></radialGradient><radialGradient id="Soft_Black_Vignette-2" cx="8.9" cy="10.83" r="11.08" gradientTransform="translate(0 2) scale(1 0.97)" xlink:href="#Soft_Black_Vignette"/></defs><g id="Layer_2" data-name="Layer 2"><g id="Layer_1-2" data-name="Layer 1"><path class="cls-1" d="M.61.15C3.51.15,18.48,0,19,0V25C16.08,25,4.61,25,.68,25A.66.66,0,0,1,0,24.4V.76A.61.61,0,0,1,.61.15Z"/><polygon class="cls-2" points="19 24.64 4.39 12.63 19 0.66 19 24.64"/><path class="cls-3" d="M17.7,25H.6a.6.6,0,0,1-.6-.6V.6A.6.6,0,0,1,.6,0L17.81,0c-7.12,0-13,5.58-13,12.48A12.69,12.69,0,0,0,17.7,25Z"/><text class="cls-4" transform="translate(2.7 14.18)">AH</text></g></g></svg>