<svg xmlns="http://www.w3.org/2000/svg" xmlns:xlink="http://www.w3.org/1999/xlink" viewBox="0 0 19 25.15"><defs><style>.cls-1{fill:#fff;}.cls-2{fill:url(#Soft_Black_Vignette);}.cls-3{fill:url(#Soft_Black_Vignette-2);}.cls-4{font-size:7.63px;font-family:AmericanTypewriter-Bold, American Typewriter;font-weight:700;letter-spacing:0.09em;}</style><radialGradient id="Soft_Black_Vignette" cx="14.94" cy="11.97" r="9.93" gradientTransform="translate(26.64 24.61) rotate(180)" gradientUnits="userSpaceOnUse"><stop offset="0.74" stop-color="#130c0e" stop-opacity="0"/><stop offset="0.83" stop-color="#130c0e" stop-opacity="0.24"/><stop offset="0.89" stop-color="#130c0e" stop-opacity="0.65"/><stop offset="0.9" stop-color="#130c0e" stop-opacity="0.7"/><stop offset="1" stop-color="#130c0e" stop-opacity="0.95"/></radialGradient><radialGradient id="Soft_Black_Vignette-2" cx="8.85" cy="12.1" r="11.06" gradientTransform="translate(0 0.77) scale(1 0.97)" xlink:href="#Soft_Black_Vignette"/></defs><g id="Layer_2" data-name="Layer 2"><g id="Layer_1-2" data-name="Layer 1"><path class="cls-1" d="M.61.15c4,0,15.73,0,18.39,0v25c-2.92,0-14.46,0-18.39,0A.61.61,0,0,1,0,24.53V.76A.61.61,0,0,1,.61.15Z"/><polygon class="cls-2" points="19 24.64 4.39 12.63 19 0.66 19 24.64"/><path class="cls-3" d="M17.7,25H.6a.6.6,0,0,1-.6-.6V.6A.6.6,0,0,1,.6,0H17.7A12.7,12.7,0,0,0,4.81,12.5,12.69,12.69,0,0,0,17.7,25Z"/><text class="cls-4" transform="translate(2.7 14.18)">AH</text></g></g></svg>